<svg width="42" height="34" viewBox="0 0 42 34" fill="none" xmlns="http://www.w3.org/2000/svg">
    <g clip-path="url(#clip0)">
        <path d="M41.3571 31.7148C41.3571 32.6942 40.5641 33.4908 39.5811 33.4908H1.77598C0.793025 33.4908 0 32.6942 0 31.7148C0 30.7459 0.793025 29.9423 1.77598 29.9423H39.5811C40.5641 29.9423 41.3571 30.7465 41.3571 31.7148Z" fill="#5893CE"/>
        <path d="M41.3571 24.2977C41.3571 25.2824 40.5641 26.0754 39.5811 26.0754H10.5799C9.59869 26.0754 8.80566 25.2824 8.80566 24.2977C8.80566 23.3305 9.59869 22.5264 10.5799 22.5264H39.5811C40.5641 22.5264 41.3571 23.3305 41.3571 24.2977Z" fill="#7065AD"/>
        <path d="M41.3572 16.8875C41.3572 17.8693 40.5642 18.6652 39.5812 18.6652H19.1122C18.1304 18.6652 17.3362 17.8693 17.3362 16.8875C17.3362 15.9092 18.1304 15.1086 19.1122 15.1086H39.5812C40.5642 15.1086 41.3572 15.9098 41.3572 16.8875Z" fill="#EE334F"/>
        <path d="M41.357 9.4686C41.357 10.4533 40.564 11.2475 39.581 11.2475H27.7435C26.7617 11.2475 25.9675 10.4527 25.9675 9.4686C25.9675 8.495 26.7617 7.70081 27.7435 7.70081H39.581C40.564 7.70081 41.357 8.495 41.357 9.4686Z" fill="#F6A61C"/>
        <path d="M41.3571 2.06023C41.3571 3.04318 40.5641 3.83621 39.5811 3.83621H36.139C35.1578 3.83621 34.363 3.04377 34.363 2.06023C34.3636 1.08546 35.1578 0.283081 36.139 0.283081H39.5811C40.5641 0.283081 41.3571 1.08546 41.3571 2.06023Z" fill="#69BD45"/>
    </g>
    <defs>
        <clipPath id="clip0">
            <rect width="41.3571" height="33.2077" fill="white" transform="translate(0 0.283081)"/>
        </clipPath>
    </defs>
</svg>
