<svg width="231" height="29" viewBox="0 0 231 29" fill="none" xmlns="http://www.w3.org/2000/svg">
    <g clip-path="url(#clip0)">
        <path d="M32.9431 26.8556C32.9431 27.6358 32.3114 28.2703 31.5284 28.2703H1.41466C0.631685 28.2703 0 27.6358 0 26.8556C0 26.0838 0.631685 25.4437 1.41466 25.4437H31.5284C32.3114 25.4437 32.9431 26.0843 32.9431 26.8556Z" fill="white"/>
        <path d="M32.943 20.9474C32.943 21.7318 32.3114 22.3635 31.5284 22.3635H8.42742C7.64585 22.3635 7.01416 21.7318 7.01416 20.9474C7.01416 20.177 7.64585 19.5365 8.42742 19.5365H31.5284C32.3114 19.5365 32.943 20.177 32.943 20.9474Z" fill="white"/>
        <path d="M32.943 15.0449C32.943 15.827 32.3114 16.461 31.5284 16.461H15.2237C14.4417 16.461 13.8091 15.827 13.8091 15.0449C13.8091 14.2657 14.4417 13.6279 15.2237 13.6279H31.5284C32.3114 13.6279 32.943 14.2661 32.943 15.0449Z" fill="white"/>
        <path d="M32.9431 9.13531C32.9431 9.91968 32.3114 10.5523 31.5284 10.5523H22.0992C21.3172 10.5523 20.6846 9.91922 20.6846 9.13531C20.6846 8.35979 21.3172 7.72717 22.0992 7.72717H31.5284C32.3114 7.72717 32.9431 8.35979 32.9431 9.13531Z" fill="white"/>
        <path d="M32.9431 3.23419C32.9431 4.01717 32.3114 4.64885 31.5284 4.64885H28.7866C28.005 4.64885 27.3719 4.01763 27.3719 3.23419C27.3724 2.45774 28.005 1.8186 28.7866 1.8186H31.5284C32.3114 1.8186 32.9431 2.45774 32.9431 3.23419Z" fill="white"/>
    </g>
    <path d="M55.0054 27.5532C54.2308 27.665 53.2261 27.7412 52.4903 27.7412C48.9301 27.7412 47.2285 26.8126 47.2285 22.5507V9.03561L43.4754 8.61427C43.0509 8.5689 42.7413 8.33879 42.7413 7.91097V6.86736C42.7413 6.44278 43.0509 6.17216 43.477 6.17216H47.2302V2.37367C47.2302 1.98799 47.5008 1.67685 47.927 1.59745L49.938 1.28955H50.0531C50.3642 1.28955 50.6349 1.55856 50.6349 1.9491V6.17378H54.8125C55.2387 6.17378 55.5871 6.51895 55.5871 6.94514V8.26262C55.5871 8.68882 55.2404 9.03561 54.8125 9.03561H50.6349V22.5523C50.6349 24.6849 51.1777 24.9944 52.7253 24.9944H54.8903C55.4332 24.9944 55.7022 25.15 55.7022 25.5422V26.8937C55.7022 27.2388 55.5094 27.4706 55.0054 27.5532Z" fill="white"/>
    <path d="M73.3529 27.4705H71.5736C71.149 27.4705 70.799 27.1254 70.799 26.6992V25.8435C68.9419 26.9293 67.007 27.7395 64.8403 27.7395C61.5539 27.7395 58.5349 26.3086 58.5349 21.4698V21.0063C58.5349 16.8221 60.9738 14.73 67.8593 14.73H70.7212V13.1808C70.7212 9.92198 69.5998 8.79897 66.5824 8.79897C64.0673 8.79897 62.2102 8.95616 60.6643 9.11173H60.4698C60.123 9.11173 59.773 8.99343 59.773 8.49107V7.13632C59.773 6.71013 60.0436 6.47677 60.5865 6.40061C62.173 6.1316 63.9523 5.90149 66.5824 5.90149C71.9609 5.90149 74.1275 8.61099 74.1275 13.1808V26.6992C74.1275 27.1254 73.7775 27.4705 73.3529 27.4705ZM70.7212 17.1722H67.8593C63.1761 17.1722 61.9396 18.2142 61.9396 20.9642V21.4276C61.9396 24.2198 63.2555 24.9555 65.4999 24.9555C67.2808 24.9555 68.8657 24.4142 70.7212 23.4047V17.1722Z" fill="white"/>
    <path d="M88.1432 8.84443C86.3639 8.84443 84.7401 9.3079 82.8052 10.4698V26.7009C82.8052 27.0898 82.4568 27.4722 82.0306 27.4722H80.1362C79.7505 27.4722 79.4005 27.1271 79.4005 26.7009V6.94357C79.4005 6.51899 79.7084 6.17058 80.1362 6.17058H81.9544C82.379 6.17058 82.6902 6.51737 82.6902 6.94357V7.76031C84.6234 6.40232 86.4028 5.9032 88.1448 5.9032C88.6877 5.9032 88.9567 6.13331 88.9567 6.5984V8.18812C88.9551 8.6127 88.6844 8.84443 88.1432 8.84443Z" fill="white"/>
    <path d="M117.476 27.4706H115.621C115.196 27.4706 114.846 27.1254 114.846 26.6992V12.988C114.846 9.7373 113.337 8.84764 111.325 8.84764C109.933 8.84764 108.307 9.30948 106.799 9.88801C107.03 10.742 107.145 11.7467 107.145 12.9119V26.7008C107.145 27.0865 106.875 27.4722 106.45 27.4722H104.399C104.013 27.4722 103.741 27.127 103.741 26.7008V12.9119C103.741 9.54122 102.773 8.84764 100.761 8.84764C99.3702 8.84764 97.667 9.54284 96.0417 10.3531V26.7025C96.0417 27.0881 95.771 27.4738 95.3448 27.4738H93.2949C92.9076 27.4738 92.637 27.1286 92.637 26.7025V6.94353C92.637 6.51896 92.9449 6.17055 93.3711 6.17055H95.3059C95.7305 6.17055 96.0417 6.51734 96.0417 6.94353V7.67925C97.5893 6.7118 99.5614 5.85779 101.689 5.85779C103.353 5.85779 104.591 6.32288 105.559 7.44751C107.687 6.44279 109.972 5.85779 111.981 5.85779C115.465 5.85779 118.249 7.60308 118.249 12.988V26.7008C118.251 27.1254 117.902 27.4706 117.476 27.4706Z" fill="white"/>
    <path d="M137.574 27.4705H135.794C135.368 27.4705 135.02 27.1254 135.02 26.6992V25.8435C133.163 26.9293 131.228 27.7395 129.06 27.7395C125.773 27.7395 122.754 26.3086 122.754 21.4698V21.0063C122.754 16.8221 125.191 14.73 132.079 14.73H134.94V13.1808C134.94 9.92198 133.819 8.79897 130.802 8.79897C128.287 8.79897 126.429 8.95616 124.884 9.11173H124.689C124.342 9.11173 123.994 8.99343 123.994 8.49107V7.13632C123.994 6.71013 124.264 6.47677 124.806 6.40061C126.392 6.1316 128.173 5.90149 130.802 5.90149C136.18 5.90149 138.347 8.61099 138.347 13.1808V26.6992C138.348 27.1254 138 27.4705 137.574 27.4705ZM134.942 17.1722H132.08C127.399 17.1722 126.16 18.2142 126.16 20.9642V21.4276C126.16 24.2198 127.476 24.9555 129.721 24.9555C131.5 24.9555 133.088 24.4142 134.942 23.4047V17.1722Z" fill="white"/>
    <path d="M156.002 27.3198C154.725 27.5516 152.983 27.7395 151.167 27.7395C145.905 27.7395 142.925 24.0253 142.925 18.3324V15.3102C142.925 9.61733 145.864 5.90149 151.167 5.90149C152.946 5.90149 154.725 6.09109 156.002 6.32282C156.621 6.44112 156.777 6.63396 156.777 7.17521V8.56723C156.777 8.95778 156.466 9.15224 156.119 9.15224H155.963C154.26 8.95778 153.061 8.88323 151.167 8.88323C148.071 8.88323 146.331 10.9332 146.331 15.3102V18.3324C146.331 22.6706 148.033 24.7594 151.167 24.7594C153.061 24.7594 154.26 24.6849 155.963 24.4888H156.119C156.464 24.4888 156.777 24.6865 156.777 25.0738V26.4658C156.775 26.9682 156.62 27.2015 156.002 27.3198Z" fill="white"/>
    <path d="M163.971 27.5481V0.392423H180.492V3.0609H166.993V12.4398H178.137V15.0691H166.993V24.8796H180.492V27.5481H163.971Z" fill="white"/>
    <path d="M187.356 14.088C187.356 18.0646 187.88 20.9293 188.926 22.6821C189.972 24.4087 191.987 25.2721 194.969 25.2721C197.978 25.2721 199.992 24.4218 201.013 22.7213C202.059 21.0208 202.582 18.1692 202.582 14.1665C202.582 10.1638 202.046 7.24675 200.973 5.41544C199.901 3.58413 197.886 2.66848 194.93 2.66848C192 2.66848 189.999 3.58413 188.926 5.41544C187.88 7.22059 187.356 10.1114 187.356 14.088ZM205.722 14.1665C205.722 19.0064 204.95 22.512 203.406 24.6834C201.863 26.8548 199.051 27.9406 194.969 27.9406C190.914 27.9406 188.115 26.8287 186.571 24.6049C185.028 22.3812 184.256 18.8886 184.256 14.1272C184.256 9.33968 185.041 5.79479 186.611 3.49257C188.18 1.16419 190.967 0 194.969 0C198.972 0 201.758 1.15111 203.328 3.45333C204.924 5.75554 205.722 9.3266 205.722 14.1665Z" fill="white"/>
    <path d="M220.954 27.5481H211.261V0.392423H220.954C225.375 0.392423 228.305 2.14525 229.744 5.6509C230.581 7.66534 231 10.3077 231 13.5779C231 20.406 229.299 24.7096 225.898 26.4886C224.538 27.1949 222.89 27.5481 220.954 27.5481ZM227.9 13.5779C227.9 8.3717 226.736 5.12767 224.407 3.84575C223.465 3.32252 222.314 3.0609 220.954 3.0609H214.283V24.8796H220.954C225.584 24.8796 227.9 21.1124 227.9 13.5779Z" fill="white"/>
    <defs>
        <clipPath id="clip0">
            <rect width="32.9431" height="26.4516" fill="white" transform="translate(0 1.8186)"/>
        </clipPath>
    </defs>
</svg>
