<svg width="290" height="36" viewBox="0 0 290 36" fill="none" xmlns="http://www.w3.org/2000/svg">
<g clip-path="url(#clip0)">
<path d="M41.3571 33.7148C41.3571 34.6942 40.5641 35.4908 39.5811 35.4908H1.77598C0.793025 35.4908 0 34.6942 0 33.7148C0 32.7459 0.793025 31.9423 1.77598 31.9423H39.5811C40.5641 31.9423 41.3571 32.7465 41.3571 33.7148Z" fill="#5893CE"/>
<path d="M41.3571 26.2977C41.3571 27.2824 40.5641 28.0754 39.5811 28.0754H10.5799C9.59869 28.0754 8.80566 27.2824 8.80566 26.2977C8.80566 25.3305 9.59869 24.5264 10.5799 24.5264H39.5811C40.5641 24.5264 41.3571 25.3305 41.3571 26.2977Z" fill="#7065AD"/>
<path d="M41.3572 18.8875C41.3572 19.8693 40.5642 20.6652 39.5812 20.6652H19.1122C18.1304 20.6652 17.3362 19.8693 17.3362 18.8875C17.3362 17.9092 18.1304 17.1086 19.1122 17.1086H39.5812C40.5642 17.1086 41.3572 17.9098 41.3572 18.8875Z" fill="#EE334F"/>
<path d="M41.357 11.4686C41.357 12.4533 40.564 13.2475 39.581 13.2475H27.7435C26.7617 13.2475 25.9675 12.4527 25.9675 11.4686C25.9675 10.495 26.7617 9.70081 27.7435 9.70081H39.581C40.564 9.70081 41.357 10.495 41.357 11.4686Z" fill="#F6A61C"/>
<path d="M41.3571 4.06023C41.3571 5.04318 40.5641 5.83621 39.5811 5.83621H36.139C35.1578 5.83621 34.363 5.04377 34.363 4.06023C34.3636 3.08546 35.1578 2.28308 36.139 2.28308H39.5811C40.5641 2.28308 41.3571 3.08546 41.3571 4.06023Z" fill="#69BD45"/>
</g>
<path d="M69.0544 34.5906C68.0819 34.731 66.8206 34.8266 65.897 34.8266C61.4274 34.8266 59.2912 33.6609 59.2912 28.3104V11.3434L54.5795 10.8144C54.0465 10.7575 53.658 10.4686 53.658 9.9315V8.62134C53.658 8.08832 54.0465 7.74858 54.5816 7.74858H59.2933V2.97992C59.2933 2.49573 59.633 2.10512 60.1681 2.00543L62.6928 1.6189H62.8372C63.2278 1.6189 63.5676 1.95661 63.5676 2.4469V7.75061H68.8123C69.3473 7.75061 69.7847 8.18394 69.7847 8.71899V10.373C69.7847 10.908 69.3494 11.3434 68.8123 11.3434H63.5676V28.3124C63.5676 30.9897 64.2491 31.3783 66.192 31.3783H68.9099C69.5915 31.3783 69.9292 31.5736 69.9292 32.0659V33.7626C69.9292 34.1959 69.6871 34.4868 69.0544 34.5906Z" fill="#333333"/>
<path d="M92.088 34.4869H89.8542C89.3212 34.4869 88.8818 34.0536 88.8818 33.5185V32.4443C86.5503 33.8074 84.1213 34.8246 81.4012 34.8246C77.2755 34.8246 73.4854 33.0282 73.4854 26.9535V26.3716C73.4854 21.1188 76.5471 18.4923 85.1914 18.4923H88.7841V16.5475C88.7841 12.4562 87.3763 11.0464 83.5882 11.0464C80.4308 11.0464 78.0994 11.2437 76.1586 11.439H75.9144C75.4791 11.439 75.0396 11.2905 75.0396 10.6599V8.9591C75.0396 8.42405 75.3794 8.13109 76.0609 8.03547C78.0526 7.69776 80.2864 7.40887 83.5882 7.40887C90.3404 7.40887 93.0605 10.8104 93.0605 16.5475V33.5185C93.0605 34.0536 92.621 34.4869 92.088 34.4869ZM88.7841 21.5582H85.1914C79.3119 21.5582 77.7597 22.8663 77.7597 26.3187V26.9006C77.7597 30.4059 79.4116 31.3295 82.2293 31.3295C84.4651 31.3295 86.4547 30.65 88.7841 29.3826V21.5582Z" fill="#333333"/>
<path d="M110.656 11.1033C108.422 11.1033 106.384 11.6852 103.954 13.1439V33.5205C103.954 34.0088 103.517 34.4889 102.982 34.4889H100.604C100.12 34.4889 99.6802 34.0556 99.6802 33.5205V8.71698C99.6802 8.18396 100.067 7.74657 100.604 7.74657H102.886C103.419 7.74657 103.81 8.18193 103.81 8.71698V9.74232C106.237 8.03749 108.471 7.41089 110.658 7.41089C111.339 7.41089 111.677 7.69977 111.677 8.28365V10.2794C111.675 10.8124 111.335 11.1033 110.656 11.1033Z" fill="#333333"/>
<path d="M147.481 34.4868H145.151C144.618 34.4868 144.179 34.0535 144.179 33.5184V16.3053C144.179 12.2243 142.285 11.1074 139.758 11.1074C138.011 11.1074 135.97 11.6872 134.076 12.4135C134.367 13.4856 134.511 14.7469 134.511 16.2097V33.5205C134.511 34.0047 134.172 34.4889 133.639 34.4889H131.063C130.579 34.4889 130.237 34.0555 130.237 33.5205V16.2097C130.237 11.9781 129.023 11.1074 126.496 11.1074C124.75 11.1074 122.612 11.9801 120.572 12.9973V33.5225C120.572 34.0067 120.232 34.4909 119.697 34.4909H117.123C116.637 34.4909 116.297 34.0576 116.297 33.5225V8.71694C116.297 8.18392 116.684 7.74652 117.219 7.74652H119.648C120.181 7.74652 120.572 8.18189 120.572 8.71694V9.64056C122.515 8.42602 124.99 7.35388 127.662 7.35388C129.751 7.35388 131.305 7.93776 132.52 9.34964C135.191 8.0883 138.059 7.35388 140.582 7.35388C144.956 7.35388 148.451 9.54494 148.451 16.3053V33.5205C148.453 34.0535 148.016 34.4868 147.481 34.4868Z" fill="#333333"/>
<path d="M172.712 34.4869H170.478C169.943 34.4869 169.505 34.0536 169.505 33.5185V32.4443C167.174 33.8074 164.745 34.8246 162.023 34.8246C157.897 34.8246 154.107 33.0282 154.107 26.9535V26.3716C154.107 21.1188 157.167 18.4923 165.813 18.4923H169.406V16.5475C169.406 12.4562 167.998 11.0464 164.21 11.0464C161.052 11.0464 158.721 11.2437 156.78 11.439H156.536C156.101 11.439 155.663 11.2905 155.663 10.6599V8.9591C155.663 8.42405 156.003 8.13109 156.682 8.03547C158.674 7.69776 160.91 7.40887 164.21 7.40887C170.962 7.40887 173.682 10.8104 173.682 16.5475V33.5185C173.684 34.0536 173.247 34.4869 172.712 34.4869ZM169.408 21.5582H165.815C159.938 21.5582 158.383 22.8663 158.383 26.3187V26.9006C158.383 30.4059 160.035 31.3295 162.853 31.3295C165.087 31.3295 167.08 30.65 169.408 29.3826V21.5582Z" fill="#333333"/>
<path d="M195.847 34.2977C194.244 34.5886 192.057 34.8246 189.776 34.8246C183.17 34.8246 179.429 30.1617 179.429 23.0148V19.2207C179.429 12.0738 183.12 7.40887 189.776 7.40887C192.01 7.40887 194.244 7.6469 195.847 7.93782C196.624 8.08633 196.819 8.32843 196.819 9.00792V10.7555C196.819 11.2458 196.429 11.4899 195.993 11.4899H195.798C193.66 11.2458 192.154 11.1522 189.776 11.1522C185.89 11.1522 183.706 13.7257 183.706 19.2207V23.0148C183.706 28.461 185.842 31.0833 189.776 31.0833C192.154 31.0833 193.66 30.9897 195.798 30.7436H195.993C196.427 30.7436 196.819 30.9918 196.819 31.478V33.2256C196.817 33.8562 196.622 34.1492 195.847 34.2977Z" fill="#333333"/>
<path d="M205.851 34.5842V0.492652H226.592V3.84269H209.645V15.6171H223.636V18.9179H209.645V31.2342H226.592V34.5842H205.851Z" fill="#333333"/>
<path d="M235.209 17.6862C235.209 22.6785 235.866 26.2748 237.18 28.4753C238.494 30.643 241.023 31.7268 244.767 31.7268C248.544 31.7268 251.073 30.6594 252.354 28.5246C253.667 26.3898 254.324 22.8098 254.324 17.7848C254.324 12.7597 253.651 9.09766 252.304 6.79861C250.958 4.49956 248.429 3.35004 244.718 3.35004C241.039 3.35004 238.527 4.49956 237.18 6.79861C235.866 9.06481 235.209 12.694 235.209 17.6862ZM258.265 17.7848C258.265 23.8608 257.297 28.2619 255.359 30.9879C253.421 33.7139 249.89 35.0769 244.767 35.0769C239.676 35.0769 236.162 33.681 234.224 30.8893C232.286 28.0976 231.317 23.713 231.317 17.7355C231.317 11.7251 232.303 7.27484 234.273 4.38461C236.244 1.46154 239.742 0 244.767 0C249.792 0 253.29 1.44511 255.26 4.33534C257.264 7.22557 258.265 11.7087 258.265 17.7848Z" fill="#333333"/>
<path d="M277.388 34.5842H265.22V0.492652H277.388C282.939 0.492652 286.617 2.69317 288.424 7.0942C289.475 9.62315 290 12.9403 290 17.0458C290 25.618 287.865 31.0207 283.596 33.2541C281.888 34.1409 279.819 34.5842 277.388 34.5842ZM286.108 17.0458C286.108 10.5099 284.647 6.43733 281.723 4.828C280.541 4.17113 279.096 3.84269 277.388 3.84269H269.013V31.2342H277.388C283.201 31.2342 286.108 26.5047 286.108 17.0458Z" fill="#333333"/>
<defs>
<clipPath id="clip0">
<rect width="41.3571" height="33.2077" fill="white" transform="translate(0 2.28308)"/>
</clipPath>
</defs>
</svg>
